HIERARCHY
ROOT Hips
{
	OFFSET 0.00000 0.00000 0.00000
	CHANNELS 6 Xposition Yposition Zposition Zrotation Yrotation Xrotation 
	JOINT LHipJoint
	{
		OFFSET 0 0 0
		CHANNELS 3 Zrotation Yrotation Xrotation
		JOINT LeftUpLeg
		{
			OFFSET 1.62964 -1.40469 0.78906
			CHANNELS 3 Zrotation Yrotation Xrotation
			JOINT LeftLeg
			{
				OFFSET 2.29640 -6.30932 0.00000
				CHANNELS 3 Zrotation Yrotation Xrotation
				JOINT LeftFoot
				{
					OFFSET 2.29451 -6.30412 0.00000
					CHANNELS 3 Zrotation Yrotation Xrotation
					JOINT LeftToeBase
					{
						OFFSET 0.03611 -0.09921 1.56387
						CHANNELS 3 Zrotation Yrotation Xrotation
						End Site
						{
							OFFSET 0.00000 -0.00000 0.80291
						}
					}
				}
			}
		}
	}
	JOINT RHipJoint
	{
		OFFSET 0 0 0
		CHANNELS 3 Zrotation Yrotation Xrotation
		JOINT RightUpLeg
		{
			OFFSET -1.73712 -1.40469 0.78906
			CHANNELS 3 Zrotation Yrotation Xrotation
			JOINT RightLeg
			{
				OFFSET -2.28137 -6.26801 0.00000
				CHANNELS 3 Zrotation Yrotation Xrotation
				JOINT RightFoot
				{
					OFFSET -2.28681 -6.28298 0.00000
					CHANNELS 3 Zrotation Yrotation Xrotation
					JOINT RightToeBase
					{
						OFFSET -0.15927 -0.43759 1.61103
						CHANNELS 3 Zrotation Yrotation Xrotation
						End Site
						{
							OFFSET -0.00000 -0.00000 0.84630
						}
					}
				}
			}
		}
	}
	JOINT LowerBack
	{
		OFFSET 0 0 0
		CHANNELS 3 Zrotation Yrotation Xrotation
		JOINT Spine
		{
			OFFSET -0.04227 2.04338 -0.00225
			CHANNELS 3 Zrotation Yrotation Xrotation
			JOINT Spine1
			{
				OFFSET -0.02148 2.04482 -0.04273
				CHANNELS 3 Zrotation Yrotation Xrotation
				JOINT Neck
				{
					OFFSET 0 0 0
					CHANNELS 3 Zrotation Yrotation Xrotation
					JOINT Neck1
					{
						OFFSET 0.09180 1.44629 0.19359
						CHANNELS 3 Zrotation Yrotation Xrotation
						JOINT Head
						{
							OFFSET 0.00887 1.40645 0.14750
							CHANNELS 3 Zrotation Yrotation Xrotation
							End Site
							{
								OFFSET -0.00669 1.50671 0.03707
							}
						}
					}
				}
				JOINT LeftShoulder
				{
					OFFSET 0 0 0
					CHANNELS 3 Zrotation Yrotation Xrotation
					JOINT LeftArm
					{
						OFFSET 2.17674 1.86763 -0.06520
						CHANNELS 3 Zrotation Yrotation Xrotation
						JOINT LeftForeArm
						{
							OFFSET 4.65776 -0.00000 0.00000
							CHANNELS 3 Zrotation Yrotation Xrotation
							JOINT LeftHand
							{
								OFFSET 3.55539 -0.00000 0.00000
								CHANNELS 3 Zrotation Yrotation Xrotation
								JOINT LeftFingerBase
								{
									OFFSET 0 0 0
									CHANNELS 3 Zrotation Yrotation Xrotation
									JOINT LeftHandIndex1
									{
										OFFSET 0.70726 -0.00000 0.00000
										CHANNELS 3 Zrotation Yrotation Xrotation
										End Site
										{
											OFFSET 0.57022 -0.00000 0.00000
										}
									}
								}
								JOINT LThumb
								{
									OFFSET 0 0 0
									CHANNELS 3 Zrotation Yrotation Xrotation
									End Site
									{
										OFFSET 0.57892 -0.00000 0.57892
									}
								}
							}
						}
					}
				}
				JOINT RightShoulder
				{
					OFFSET 0 0 0
					CHANNELS 3 Zrotation Yrotation Xrotation
					JOINT RightArm
					{
						OFFSET -2.80694 1.55459 -0.32496
						CHANNELS 3 Zrotation Yrotation Xrotation
						JOINT RightForeArm
						{
							OFFSET -4.71925 -0.00000 -0.00000
							CHANNELS 3 Zrotation Yrotation Xrotation
							JOINT RightHand
							{
								OFFSET -3.56990 -0.00000 0.00000
								CHANNELS 3 Zrotation Yrotation Xrotation
								JOINT RightFingerBase
								{
									OFFSET 0 0 0
									CHANNELS 3 Zrotation Yrotation Xrotation
									JOINT RightHandIndex1
									{
										OFFSET -0.50776 -0.00000 0.00000
										CHANNELS 3 Zrotation Yrotation Xrotation
										End Site
										{
											OFFSET -0.40937 -0.00000 0.00000
										}
									}
								}
								JOINT RThumb
								{
									OFFSET 0 0 0
									CHANNELS 3 Zrotation Yrotation Xrotation
									End Site
									{
										OFFSET -0.41562 -0.00000 0.41562
									}
								}
							}
						}
					}
				}
			}
		}
	}
}
MOTION
Frames: 11
Frame Time: .0083333
9.6572 11.8421 4.3424 0 0 0 0 0 0 -21 0 0 0 0 0 0 0 0 0 0 0 0 0 0 21 0 0 0 0 0 0 0 0 0 0 0 0 0 0 0 0 0 0 0 0 0 0 -16 0 0 21 0 0 11 0 0 0 -8 0 0 0 0 0 0 0 0 0 0 0 0 0 0 0 0 0 0 0 0 8 0 0 0 0 0 0 0 0 0 0 0 0 0 0 0 0 0
9.6572 11.8421 4.3424 -0.0700 -1.1335 19.0347 0.0000 0.0000 0.0000 2.6289 -14.7593 -68.3798 0.0000 0.0000 0.0000 0.0000 0.0000 0.0000 0.0000 0.0000 0.0000 0.0000 0.0000 0.0000 1.2109 11.8307 -65.6045 0.0000 0.0000 0.0000 -0.0000 -0.0000 0.0000 -0.0000 -0.0000 0.0000 -2.0074 0.5705 -0.5220 -1.4723 0.8272 2.0858 -0.3642 0.3888 2.4257 6.1123 -0.7318 -10.0152 1.7721 -1.2580 -14.8351 -0.4618 -0.9922 -3.1311 0.0000 0.0000 0.0000 0.0000 0.0000 -0.0000 0.0000 0.0000 -0.0000 -0.0000 -0.0000 0.0000 -0.0000 0.0000 0.0000 -0.0000 0.0000 0.0000 0.0000 0.0000 0.0000 0.0000 0.0000 0.0000 -27.3647 72.4133 -59.3638 -9.4622 15.8940 -1.3239 0.0000 0.0000 29.9032 -14.2581 -35.7616 8.4473 7.1250 -0.0000 -0.0000 24.7533 -64.9657 -12.3017
9.6570 11.8398 4.3449 -0.0938 -1.1227 18.9737 0.0000 0.0000 0.0000 2.6500 -14.7782 -68.3153 0.0000 0.0000 0.0000 0.0000 0.0000 0.0000 0.0000 0.0000 0.0000 0.0000 0.0000 0.0000 1.2719 11.8121 -65.5306 0.0000 0.0000 0.0000 -0.0000 -0.0000 0.0000 -0.0000 -0.0000 0.0000 -2.0112 0.5714 -0.5370 -1.4635 0.8306 2.1603 -0.3526 0.3894 2.5107 6.8162 -0.9924 -8.8800 1.0145 -1.6082 -16.2114 -0.8239 -1.2293 -3.8559 0.0000 -0.0000 0.0000 0.0000 0.0000 -0.0000 0.0000 0.0000 -0.0000 -0.0000 -0.0000 0.0000 -0.0000 0.0000 0.0000 -0.0000 0.0000 0.0000 0.0000 0.0000 0.0000 0.0000 -0.0000 0.0000 -27.5128 72.3364 -59.3391 -9.5246 15.9925 -1.3410 0.0000 0.0000 29.6734 -14.2986 -36.0988 8.5400 7.1250 -0.0000 -0.0000 25.0934 -65.2752 -12.6594
9.6581 11.8373 4.3472 -0.1329 -1.0875 18.9254 0.0000 0.0000 0.0000 2.6906 -14.8060 -68.2757 0.0000 0.0000 0.0000 0.0000 0.0000 0.0000 0.0000 0.0000 0.0000 0.0000 0.0000 0.0000 1.3371 11.7744 -65.4548 0.0000 0.0000 0.0000 -0.0000 -0.0000 0.0000 -0.0000 -0.0000 0.0000 -1.9800 0.5655 -0.5356 -1.4285 0.8212 2.1532 -0.3344 0.3851 2.5026 6.7459 -0.8438 -9.3638 1.0955 -1.4421 -15.8538 -0.7883 -1.1327 -3.6319 -0.0000 -0.0000 0.0000 0.0000 0.0000 -0.0000 0.0000 0.0000 -0.0000 -0.0000 -0.0000 0.0000 -0.0000 0.0000 0.0000 -0.0000 0.0000 0.0000 0.0000 0.0000 0.0000 -0.0000 -0.0000 0.0000 -27.3112 72.3010 -58.8348 -9.5946 16.1029 -1.3603 0.0000 0.0000 29.4555 -14.0011 -36.4856 8.4337 7.1250 -0.0000 -0.0000 25.8761 -65.5314 -13.2304
9.6603 11.8364 4.3479 -0.2078 -1.0794 18.9000 0.0000 0.0000 0.0000 2.7456 -14.7702 -68.2459 0.0000 0.0000 0.0000 0.0000 0.0000 0.0000 0.0000 0.0000 0.0000 0.0000 0.0000 0.0000 1.4177 11.7903 -65.4103 0.0000 0.0000 0.0000 -0.0000 -0.0000 0.0000 -0.0000 -0.0000 0.0000 -1.8973 0.5642 -0.5025 -1.3938 0.8153 2.1133 -0.3457 0.3840 2.4434 6.7381 -0.9997 -10.1133 0.9906 -1.7542 -14.7622 -0.8273 -1.2525 -3.1225 0.0000 0.0000 0.0000 0.0000 0.0000 -0.0000 0.0000 0.0000 -0.0000 -0.0000 -0.0000 0.0000 -0.0000 0.0000 0.0000 -0.0000 0.0000 0.0000 0.0000 0.0000 0.0000 0.0000 0.0000 0.0000 -27.2375 72.3834 -58.9414 -9.5799 16.0798 -1.3563 0.0000 0.0000 29.7723 -13.9861 -36.3946 8.4066 7.1250 -0.0000 -0.0000 25.7845 -65.4475 -13.1312
9.6604 11.8346 4.3507 -0.1951 -1.1366 18.8437 0.0000 0.0000 0.0000 2.6804 -14.7223 -68.1607 0.0000 0.0000 0.0000 0.0000 0.0000 0.0000 0.0000 0.0000 0.0000 0.0000 0.0000 0.0000 1.4118 11.8073 -65.3554 0.0000 0.0000 0.0000 -0.0000 -0.0000 0.0000 -0.0000 -0.0000 0.0000 -1.9144 0.5949 -0.4820 -1.4359 0.8570 2.1280 -0.3784 0.4048 2.4471 6.5603 -0.7318 -9.9168 1.3760 -1.3126 -15.1450 -0.6672 -1.0426 -3.2707 -0.0000 -0.0000 0.0000 0.0000 0.0000 -0.0000 0.0000 0.0000 -0.0000 -0.0000 -0.0000 0.0000 -0.0000 0.0000 0.0000 -0.0000 0.0000 0.0000 0.0000 0.0000 0.0000 -0.0000 -0.0000 0.0000 -27.2300 72.4047 -59.2722 -9.5436 16.0225 -1.3462 0.0000 0.0000 30.0985 -14.3243 -35.9943 8.5347 7.1250 -0.0000 -0.0000 24.9446 -65.1901 -12.5312
9.6608 11.8305 4.3545 -0.0897 -1.2006 18.7859 0.0000 0.0000 0.0000 2.5037 -14.7404 -68.0896 0.0000 0.0000 0.0000 0.0000 0.0000 0.0000 0.0000 0.0000 0.0000 0.0000 0.0000 0.0000 1.2879 11.7845 -65.3186 0.0000 0.0000 0.0000 -0.0000 -0.0000 0.0000 -0.0000 -0.0000 0.0000 -2.0231 0.6146 -0.5140 -1.5018 0.8890 2.1797 -0.3838 0.4186 2.5178 6.9506 -0.9563 -10.3101 0.9704 -1.7337 -14.5781 -0.8717 -1.2467 -3.0281 -0.0000 0.0000 0.0000 0.0000 0.0000 -0.0000 0.0000 0.0000 -0.0000 -0.0000 -0.0000 0.0000 -0.0000 0.0000 0.0000 -0.0000 0.0000 0.0000 0.0000 0.0000 0.0000 -0.0000 0.0000 0.0000 -27.2874 72.3387 -59.3085 -9.5681 16.0612 -1.3530 0.0000 0.0000 30.0442 -14.3895 -35.9028 8.5560 7.1250 -0.0000 -0.0000 24.7680 -65.1274 -12.4016
9.6622 11.8273 4.3558 -0.0075 -1.2538 18.7635 0.0000 0.0000 0.0000 2.3714 -14.7605 -68.0623 0.0000 0.0000 0.0000 0.0000 0.0000 0.0000 0.0000 0.0000 0.0000 0.0000 0.0000 0.0000 1.1753 11.7808 -65.3282 0.0000 0.0000 0.0000 -0.0000 -0.0000 0.0000 -0.0000 -0.0000 0.0000 -2.1534 0.6073 -0.5119 -1.4916 0.8813 2.1806 -0.3006 0.4120 2.5157 6.5788 -0.7825 -9.7885 1.3384 -1.3739 -15.2270 -0.6822 -1.0764 -3.3245 -0.0000 0.0000 0.0000 0.0000 0.0000 -0.0000 0.0000 0.0000 -0.0000 -0.0000 -0.0000 0.0000 -0.0000 0.0000 0.0000 -0.0000 0.0000 0.0000 0.0000 0.0000 0.0000 -0.0000 0.0000 0.0000 -27.5975 72.3976 -59.7117 -9.5438 16.0228 -1.3463 0.0000 0.0000 30.1723 -14.3401 -35.9872 8.5429 7.1250 -0.0000 -0.0000 24.9190 -65.1882 -12.5165
9.6628 11.8258 4.3574 0.0300 -1.3002 18.7467 0.0000 0.0000 0.0000 2.3431 -14.7592 -68.0507 0.0000 0.0000 0.0000 0.0000 0.0000 0.0000 0.0000 0.0000 0.0000 0.0000 0.0000 0.0000 1.1263 11.7928 -65.3321 0.0000 0.0000 0.0000 -0.0000 -0.0000 0.0000 -0.0000 -0.0000 0.0000 -2.2624 0.6040 -0.4719 -1.4505 0.8752 2.1259 -0.1984 0.4072 2.4347 3.9207 -0.4240 -5.6819 4.1613 0.0262 -19.3789 0.6433 -0.4791 -4.9255 -0.0000 0.0000 0.0000 0.0000 0.0000 -0.0000 0.0000 0.0000 -0.0000 -0.0000 -0.0000 0.0000 -0.0000 0.0000 0.0000 -0.0000 0.0000 0.0000 0.0000 0.0000 0.0000 -0.0000 0.0000 0.0000 -27.7381 72.4892 -59.9140 -9.4928 15.9424 -1.3323 0.0000 0.0000 30.2570 -14.4250 -35.8190 8.5606 7.1250 -0.0000 -0.0000 24.6337 -65.0630 -12.2941
9.6646 11.8230 4.3587 0.0986 -1.3690 18.7064 0.0000 0.0000 0.0000 2.2650 -14.7641 -67.9920 0.0000 0.0000 0.0000 0.0000 0.0000 0.0000 0.0000 0.0000 0.0000 0.0000 0.0000 0.0000 1.0343 11.7816 -65.3334 0.0000 0.0000 0.0000 -0.0000 -0.0000 0.0000 -0.0000 -0.0000 0.0000 -2.3502 0.6240 -0.4627 -1.4658 0.9033 2.1245 -0.1644 0.4197 2.4268 5.9524 -0.6299 -9.4934 1.9347 -1.0362 -15.3373 -0.3773 -0.8940 -3.3907 0.0000 -0.0000 0.0000 0.0000 0.0000 -0.0000 0.0000 0.0000 -0.0000 -0.0000 -0.0000 0.0000 -0.0000 0.0000 0.0000 -0.0000 0.0000 0.0000 0.0000 0.0000 0.0000 0.0000 -0.0000 0.0000 -27.6866 72.4340 -59.6436 -9.5102 15.9697 -1.3370 0.0000 0.0000 29.9981 -14.4808 -35.6270 8.5553 7.1250 -0.0000 -0.0000 24.3563 -64.9079 -12.0608
9.6658 11.8194 4.3581 0.1555 -1.4042 18.7121 0.0000 0.0000 0.0000 2.2024 -14.7719 -67.9957 0.0000 0.0000 0.0000 0.0000 0.0000 0.0000 0.0000 0.0000 0.0000 0.0000 0.0000 0.0000 0.9536 11.7390 -65.3819 0.0000 0.0000 0.0000 -0.0000 -0.0000 0.0000 -0.0000 -0.0000 0.0000 -2.3907 0.6277 -0.4929 -1.5077 0.9112 2.1330 -0.1842 0.4230 2.4526 3.9055 -0.3758 -5.7407 4.1819 0.0889 -19.2978 0.6501 -0.4450 -4.8906 -0.0000 0.0000 0.0000 0.0000 0.0000 -0.0000 0.0000 0.0000 -0.0000 -0.0000 -0.0000 0.0000 -0.0000 0.0000 0.0000 -0.0000 0.0000 0.0000 0.0000 0.0000 0.0000 -0.0000 0.0000 0.0000 -27.6522 72.3704 -59.3734 -9.5406 16.0178 -1.3454 0.0000 0.0000 29.6822 -14.6098 -35.6438 8.6372 7.1250 -0.0000 -0.0000 24.2322 -64.9586 -12.0243
